ffmpeg version 2.8.8-0ubuntu0.16.04.1 Copyright (c) 2000-2016 the FFmpeg developers
  built with gcc 5.4.0 (Ubuntu 5.4.0-6ubuntu1~16.04.2) 20160609
  configuration: --prefix=/usr --extra-version=0ubuntu0.16.04.1 --build-suffix=-ffmpeg --toolchain=hardened --libdir=/usr/lib/x86_64-linux-gnu --incdir=/usr/include/x86_64-linux-gnu --cc=cc --cxx=g++ --enable-gpl --enable-shared --disable-stripping --disable-decoder=libopenjpeg --disable-decoder=libschroedinger --enable-avresample --enable-avisynth --enable-gnutls --enable-ladspa --enable-libass --enable-libbluray --enable-libbs2b --enable-libcaca --enable-libcdio --enable-libflite --enable-libfontconfig --enable-libfreetype --enable-libfribidi --enable-libgme --enable-libgsm --enable-libmodplug --enable-libmp3lame --enable-libopenjpeg --enable-libopus --enable-libpulse --enable-librtmp --enable-libschroedinger --enable-libshine --enable-libsnappy --enable-libsoxr --enable-libspeex --enable-libssh --enable-libtheora --enable-libtwolame --enable-libvorbis --enable-libvpx --enable-libwavpack --enable-libwebp --enable-libx265 --enable-libxvid --enable-libzvbi --enable-openal --enable-opengl --enable-x11grab --enable-libdc1394 --enable-libiec61883 --enable-libzmq --enable-frei0r --enable-libx264 --enable-libopencv
  libavutil      54. 31.100 / 54. 31.100
  libavcodec     56. 60.100 / 56. 60.100
  libavformat    56. 40.101 / 56. 40.101
  libavdevice    56.  4.100 / 56.  4.100
  libavfilter     5. 40.101 /  5. 40.101
  libavresample   2.  1.  0 /  2.  1.  0
  libswscale      3.  1.101 /  3.  1.101
  libswresample   1.  2.101 /  1.  2.101
  libpostproc    53.  3.100 / 53.  3.100
Input #0, image2, from 'imagenes/Cubo%02d.png':
  Duration: 00:00:04.00, start: 0.000000, bitrate: N/A
    Stream #0:0: Video: png, rgb24(pc), 320x240, 25 fps, 25 tbr, 25 tbn, 25 tbc
No pixel format specified, yuv444p for H.264 encoding chosen.
Use -pix_fmt yuv420p for compatibility with outdated media players.
[libx264 @ 0x12cd860] using cpu capabilities: MMX2 SSE2Fast SSSE3 SSE4.2 AVX XOP FMA4 FMA3 LZCNT BMI1
[libx264 @ 0x12cd860] profile High 4:4:4 Predictive, level 1.3, 4:4:4 8-bit
Output #0, avi, to 'result/cub_sse.avi':
  Metadata:
    ISFT            : Lavf56.40.101
    Stream #0:0: Video: h264 (libx264) (H264 / 0x34363248), yuv444p, 320x240, q=-1--1, 25 fps, 25 tbn, 25 tbc
    Metadata:
      encoder         : Lavc56.60.100 libx264
Stream mapping:
  Stream #0:0 -> #0:0 (png (native) -> h264 (libx264))
Press [q] to stop, [?] for help
frame=  100 fps=0.0 q=-1.0 Lsize=     434kB time=00:00:03.92 bitrate= 906.8kbits/s    
video:426kB audio:0kB subtitle:0kB other streams:0kB global headers:0kB muxing overhead: 1.864715%
bench: utime=1.540s
bench: maxrss=91292kB
[libx264 @ 0x12cd860] frame I:16    Avg QP:25.59  size:  6505
[libx264 @ 0x12cd860] frame P:84    Avg QP:28.56  size:  3954
[libx264 @ 0x12cd860] mb I  I16..4:  9.1% 86.2%  4.8%
[libx264 @ 0x12cd860] mb P  I16..4:  5.2% 40.7%  4.9%  P16..4: 17.6% 16.6%  8.3%  0.0%  0.0%    skip: 6.7%
[libx264 @ 0x12cd860] 8x8 transform intra:81.7% inter:86.3%
[libx264 @ 0x12cd860] coded y,u,v intra: 73.3% 56.5% 61.0% inter: 44.6% 24.4% 27.8%
[libx264 @ 0x12cd860] i16 v,h,dc,p: 13% 37% 16% 34%
[libx264 @ 0x12cd860] i8 v,h,dc,ddl,ddr,vr,hd,vl,hu: 21% 14% 20%  6%  6%  9%  6% 13%  7%
[libx264 @ 0x12cd860] i4 v,h,dc,ddl,ddr,vr,hd,vl,hu: 21% 11% 16%  9%  8% 10%  7% 13%  4%
[libx264 @ 0x12cd860] Weighted P-Frames: Y:19.0% UV:15.5%
[libx264 @ 0x12cd860] kb/s:872.41
